<svg width="61" height="17" viewBox="0 0 61 17" fill="none" xmlns="http://www.w3.org/2000/svg">
<g filter="url(#filter0_d_1_961)">
<mask id="path-1-outside-1_1_961" maskUnits="userSpaceOnUse" x="-0.00999451" y="0.994003" width="61" height="16" fill="black">
<rect fill="white" x="-0.00999451" y="0.994003" width="61" height="16"/>
<path d="M7.92748 16.1806C6.91973 16.1806 5.97419 15.9878 5.09085 15.6021C4.21996 15.2164 3.44859 14.6814 2.77676 13.9972C2.11737 13.3129 1.60105 12.5229 1.22781 11.6271C0.867015 10.7189 0.686615 9.74223 0.686615 8.69715C0.686615 7.66452 0.867015 6.70032 1.22781 5.80454C1.60105 4.89632 2.11737 4.1063 2.77676 3.43446C3.43615 2.75019 4.2013 2.21521 5.07219 1.82953C5.95553 1.43141 6.90729 1.23235 7.92748 1.23235C8.8357 1.23235 9.65061 1.36298 10.3722 1.62425C11.0938 1.87308 11.7967 2.28364 12.481 2.85594C12.593 2.94303 12.6614 3.04256 12.6863 3.15453C12.7236 3.25407 12.7236 3.3536 12.6863 3.45313C12.6614 3.55266 12.6179 3.63975 12.5557 3.71439C12.5308 3.85125 12.4561 3.96322 12.3317 4.05031C12.2197 4.12496 12.0829 4.16228 11.9212 4.16228C11.7594 4.16228 11.5977 4.10008 11.4359 3.97566C10.9632 3.55266 10.4531 3.24162 9.90565 3.04256C9.35823 2.83106 8.69884 2.72531 7.92748 2.72531C7.14367 2.72531 6.40341 2.88705 5.7067 3.21052C5.02242 3.52155 4.41902 3.95078 3.89648 4.4982C3.37395 5.04562 2.96338 5.68013 2.66479 6.40173C2.37864 7.12332 2.23556 7.88847 2.23556 8.69715C2.23556 9.53072 2.37864 10.3083 2.66479 11.0299C2.96338 11.7515 3.37395 12.386 3.89648 12.9334C4.41902 13.4809 5.02242 13.9101 5.7067 14.2211C6.40341 14.5321 7.14367 14.6877 7.92748 14.6877C8.58687 14.6877 9.21516 14.5757 9.81234 14.3517C10.4095 14.1278 10.9818 13.8105 11.5292 13.4C11.7034 13.2631 11.8776 13.2071 12.0518 13.232C12.2384 13.2569 12.3939 13.3378 12.5183 13.4746C12.6552 13.599 12.7236 13.7732 12.7236 13.9972C12.7236 14.1091 12.705 14.2087 12.6676 14.2958C12.6303 14.3828 12.5743 14.4762 12.4997 14.5757C11.8527 15.1356 11.1373 15.5461 10.3535 15.8074C9.58218 16.0562 8.77349 16.1806 7.92748 16.1806ZM19.4876 16.0873C18.4798 16.0873 17.5841 15.8634 16.8002 15.4155C16.0289 14.9676 15.4193 14.3517 14.9714 13.5679C14.5235 12.7841 14.2995 11.8946 14.2995 10.8993C14.2995 9.89152 14.5235 8.99575 14.9714 8.21194C15.4193 7.42814 16.0289 6.81229 16.8002 6.3644C17.5841 5.91651 18.4798 5.69257 19.4876 5.69257C20.4829 5.69257 21.3662 5.91651 22.1376 6.3644C22.9089 6.81229 23.5186 7.42814 23.9665 8.21194C24.4144 8.99575 24.6445 9.89152 24.657 10.8993C24.657 11.8946 24.433 12.7841 23.9851 13.5679C23.5372 14.3517 22.9214 14.9676 22.1376 15.4155C21.3662 15.8634 20.4829 16.0873 19.4876 16.0873ZM19.4876 14.669C20.1843 14.669 20.8064 14.5073 21.3538 14.1838C21.9012 13.8479 22.3304 13.4 22.6415 12.8401C22.9525 12.2678 23.108 11.6209 23.108 10.8993C23.108 10.1777 22.9525 9.53072 22.6415 8.95842C22.3304 8.38612 21.9012 7.93823 21.3538 7.61476C20.8064 7.27884 20.1843 7.11088 19.4876 7.11088C18.7909 7.11088 18.1626 7.27884 17.6027 7.61476C17.0553 7.93823 16.6198 8.38612 16.2964 8.95842C15.9853 9.53072 15.8298 10.1777 15.8298 10.8993C15.8298 11.6209 15.9853 12.2678 16.2964 12.8401C16.6198 13.4 17.0553 13.8479 17.6027 14.1838C18.1626 14.5073 18.7909 14.669 19.4876 14.669ZM29.7289 15.994C29.2064 15.994 28.7461 15.8571 28.348 15.5834C27.9498 15.2973 27.6388 14.9054 27.4149 14.4077C27.1909 13.9101 27.0789 13.3378 27.0789 12.6908V2.20277C27.0789 1.96639 27.1474 1.77977 27.2842 1.64291C27.4335 1.49361 27.6264 1.41897 27.8627 1.41897C28.0867 1.41897 28.2671 1.49361 28.4039 1.64291C28.5532 1.77977 28.6279 1.96639 28.6279 2.20277V12.6908C28.6279 13.2009 28.7274 13.6239 28.9265 13.9598C29.138 14.2833 29.4055 14.4451 29.7289 14.4451H30.1955C30.3946 14.4451 30.5563 14.5197 30.6807 14.669C30.8051 14.8059 30.8673 14.9863 30.8673 15.2102C30.8673 15.4466 30.774 15.6394 30.5874 15.7887C30.4132 15.9256 30.1831 15.994 29.8969 15.994H29.7289ZM35.1052 15.994C34.5827 15.994 34.1223 15.8571 33.7242 15.5834C33.3261 15.2973 33.0151 14.9054 32.7911 14.4077C32.5672 13.9101 32.4552 13.3378 32.4552 12.6908V2.20277C32.4552 1.96639 32.5236 1.77977 32.6605 1.64291C32.8098 1.49361 33.0026 1.41897 33.239 1.41897C33.463 1.41897 33.6434 1.49361 33.7802 1.64291C33.9295 1.77977 34.0041 1.96639 34.0041 2.20277V12.6908C34.0041 13.2009 34.1037 13.6239 34.3027 13.9598C34.5142 14.2833 34.7817 14.4451 35.1052 14.4451H35.5718C35.7708 14.4451 35.9326 14.5197 36.057 14.669C36.1814 14.8059 36.2436 14.9863 36.2436 15.2102C36.2436 15.4466 36.1503 15.6394 35.9637 15.7887C35.7895 15.9256 35.5593 15.994 35.2732 15.994H35.1052ZM42.0626 16.0873C41.1171 16.0873 40.2711 15.8634 39.5246 15.4155C38.7781 14.9552 38.1872 14.3331 37.7517 13.5493C37.3163 12.7655 37.0985 11.8821 37.0985 10.8993C37.0985 9.90396 37.3225 9.01441 37.7704 8.2306C38.2307 7.4468 38.8528 6.83095 39.6366 6.38306C40.4204 5.92273 41.3037 5.69257 42.2866 5.69257C43.257 5.69257 44.1279 5.92273 44.8993 6.38306C45.6831 6.83095 46.2989 7.4468 46.7468 8.2306C47.2071 9.01441 47.4435 9.90396 47.456 10.8993L46.8215 11.2165C46.8215 12.1372 46.61 12.9645 46.1869 13.6986C45.7764 14.4326 45.2103 15.0174 44.4887 15.4528C43.7795 15.8758 42.9709 16.0873 42.0626 16.0873ZM42.2866 14.669C42.9833 14.669 43.5991 14.5073 44.1341 14.1838C44.6815 13.8479 45.1108 13.3938 45.4218 12.8215C45.7453 12.2492 45.907 11.6084 45.907 10.8993C45.907 10.1777 45.7453 9.53694 45.4218 8.97708C45.1108 8.40478 44.6815 7.95067 44.1341 7.61476C43.5991 7.27884 42.9833 7.11088 42.2866 7.11088C41.6023 7.11088 40.9802 7.27884 40.4204 7.61476C39.873 7.95067 39.4375 8.40478 39.114 8.97708C38.7906 9.53694 38.6288 10.1777 38.6288 10.8993C38.6288 11.6084 38.7906 12.2492 39.114 12.8215C39.4375 13.3938 39.873 13.8479 40.4204 14.1838C40.9802 14.5073 41.6023 14.669 42.2866 14.669ZM46.6535 15.994C46.4296 15.994 46.2367 15.9256 46.075 15.7887C45.9257 15.6394 45.851 15.4466 45.851 15.2102V12.131L46.2056 10.5074L47.456 10.8993V15.2102C47.456 15.4466 47.3813 15.6394 47.232 15.7887C47.0827 15.9256 46.8899 15.994 46.6535 15.994ZM55.4019 16.0873C54.4315 16.0873 53.5606 15.8634 52.7892 15.4155C52.0179 14.9552 51.402 14.3393 50.9417 13.5679C50.4938 12.7841 50.2636 11.907 50.2512 10.9366V2.22143C50.2512 1.97261 50.3196 1.77977 50.4565 1.64291C50.6058 1.49361 50.8048 1.41897 51.0537 1.41897C51.29 1.41897 51.4767 1.49361 51.6135 1.64291C51.7628 1.77977 51.8375 1.97261 51.8375 2.22143V7.55877C52.248 6.99891 52.783 6.55102 53.4424 6.21511C54.1018 5.86675 54.8358 5.69257 55.6445 5.69257C56.59 5.69257 57.4361 5.92273 58.1825 6.38306C58.929 6.83095 59.5138 7.4468 59.9368 8.2306C60.3722 9.01441 60.5899 9.89774 60.5899 10.8806C60.5899 11.8759 60.3598 12.7655 59.8994 13.5493C59.4516 14.3331 58.8357 14.9552 58.0519 15.4155C57.2805 15.8634 56.3972 16.0873 55.4019 16.0873ZM55.4019 14.669C56.0986 14.669 56.7207 14.501 57.2681 14.1651C57.828 13.8292 58.2634 13.3813 58.5744 12.8215C58.8979 12.2492 59.0597 11.6022 59.0597 10.8806C59.0597 10.1715 58.8979 9.53072 58.5744 8.95842C58.2634 8.38612 57.828 7.93823 57.2681 7.61476C56.7207 7.27884 56.0986 7.11088 55.4019 7.11088C54.7301 7.11088 54.1142 7.27884 53.5544 7.61476C53.0069 7.93823 52.5777 8.38612 52.2667 8.95842C51.9556 9.53072 51.8001 10.1715 51.8001 10.8806C51.8001 11.6022 51.9556 12.2492 52.2667 12.8215C52.5777 13.3813 53.0069 13.8292 53.5544 14.1651C54.1142 14.501 54.7301 14.669 55.4019 14.669Z"/>
</mask>
<path d="M7.92748 16.1806C6.91973 16.1806 5.97419 15.9878 5.09085 15.6021C4.21996 15.2164 3.44859 14.6814 2.77676 13.9972C2.11737 13.3129 1.60105 12.5229 1.22781 11.6271C0.867015 10.7189 0.686615 9.74223 0.686615 8.69715C0.686615 7.66452 0.867015 6.70032 1.22781 5.80454C1.60105 4.89632 2.11737 4.1063 2.77676 3.43446C3.43615 2.75019 4.2013 2.21521 5.07219 1.82953C5.95553 1.43141 6.90729 1.23235 7.92748 1.23235C8.8357 1.23235 9.65061 1.36298 10.3722 1.62425C11.0938 1.87308 11.7967 2.28364 12.481 2.85594C12.593 2.94303 12.6614 3.04256 12.6863 3.15453C12.7236 3.25407 12.7236 3.3536 12.6863 3.45313C12.6614 3.55266 12.6179 3.63975 12.5557 3.71439C12.5308 3.85125 12.4561 3.96322 12.3317 4.05031C12.2197 4.12496 12.0829 4.16228 11.9212 4.16228C11.7594 4.16228 11.5977 4.10008 11.4359 3.97566C10.9632 3.55266 10.4531 3.24162 9.90565 3.04256C9.35823 2.83106 8.69884 2.72531 7.92748 2.72531C7.14367 2.72531 6.40341 2.88705 5.7067 3.21052C5.02242 3.52155 4.41902 3.95078 3.89648 4.4982C3.37395 5.04562 2.96338 5.68013 2.66479 6.40173C2.37864 7.12332 2.23556 7.88847 2.23556 8.69715C2.23556 9.53072 2.37864 10.3083 2.66479 11.0299C2.96338 11.7515 3.37395 12.386 3.89648 12.9334C4.41902 13.4809 5.02242 13.9101 5.7067 14.2211C6.40341 14.5321 7.14367 14.6877 7.92748 14.6877C8.58687 14.6877 9.21516 14.5757 9.81234 14.3517C10.4095 14.1278 10.9818 13.8105 11.5292 13.4C11.7034 13.2631 11.8776 13.2071 12.0518 13.232C12.2384 13.2569 12.3939 13.3378 12.5183 13.4746C12.6552 13.599 12.7236 13.7732 12.7236 13.9972C12.7236 14.1091 12.705 14.2087 12.6676 14.2958C12.6303 14.3828 12.5743 14.4762 12.4997 14.5757C11.8527 15.1356 11.1373 15.5461 10.3535 15.8074C9.58218 16.0562 8.77349 16.1806 7.92748 16.1806ZM19.4876 16.0873C18.4798 16.0873 17.5841 15.8634 16.8002 15.4155C16.0289 14.9676 15.4193 14.3517 14.9714 13.5679C14.5235 12.7841 14.2995 11.8946 14.2995 10.8993C14.2995 9.89152 14.5235 8.99575 14.9714 8.21194C15.4193 7.42814 16.0289 6.81229 16.8002 6.3644C17.5841 5.91651 18.4798 5.69257 19.4876 5.69257C20.4829 5.69257 21.3662 5.91651 22.1376 6.3644C22.9089 6.81229 23.5186 7.42814 23.9665 8.21194C24.4144 8.99575 24.6445 9.89152 24.657 10.8993C24.657 11.8946 24.433 12.7841 23.9851 13.5679C23.5372 14.3517 22.9214 14.9676 22.1376 15.4155C21.3662 15.8634 20.4829 16.0873 19.4876 16.0873ZM19.4876 14.669C20.1843 14.669 20.8064 14.5073 21.3538 14.1838C21.9012 13.8479 22.3304 13.4 22.6415 12.8401C22.9525 12.2678 23.108 11.6209 23.108 10.8993C23.108 10.1777 22.9525 9.53072 22.6415 8.95842C22.3304 8.38612 21.9012 7.93823 21.3538 7.61476C20.8064 7.27884 20.1843 7.11088 19.4876 7.11088C18.7909 7.11088 18.1626 7.27884 17.6027 7.61476C17.0553 7.93823 16.6198 8.38612 16.2964 8.95842C15.9853 9.53072 15.8298 10.1777 15.8298 10.8993C15.8298 11.6209 15.9853 12.2678 16.2964 12.8401C16.6198 13.4 17.0553 13.8479 17.6027 14.1838C18.1626 14.5073 18.7909 14.669 19.4876 14.669ZM29.7289 15.994C29.2064 15.994 28.7461 15.8571 28.348 15.5834C27.9498 15.2973 27.6388 14.9054 27.4149 14.4077C27.1909 13.9101 27.0789 13.3378 27.0789 12.6908V2.20277C27.0789 1.96639 27.1474 1.77977 27.2842 1.64291C27.4335 1.49361 27.6264 1.41897 27.8627 1.41897C28.0867 1.41897 28.2671 1.49361 28.4039 1.64291C28.5532 1.77977 28.6279 1.96639 28.6279 2.20277V12.6908C28.6279 13.2009 28.7274 13.6239 28.9265 13.9598C29.138 14.2833 29.4055 14.4451 29.7289 14.4451H30.1955C30.3946 14.4451 30.5563 14.5197 30.6807 14.669C30.8051 14.8059 30.8673 14.9863 30.8673 15.2102C30.8673 15.4466 30.774 15.6394 30.5874 15.7887C30.4132 15.9256 30.1831 15.994 29.8969 15.994H29.7289ZM35.1052 15.994C34.5827 15.994 34.1223 15.8571 33.7242 15.5834C33.3261 15.2973 33.0151 14.9054 32.7911 14.4077C32.5672 13.9101 32.4552 13.3378 32.4552 12.6908V2.20277C32.4552 1.96639 32.5236 1.77977 32.6605 1.64291C32.8098 1.49361 33.0026 1.41897 33.239 1.41897C33.463 1.41897 33.6434 1.49361 33.7802 1.64291C33.9295 1.77977 34.0041 1.96639 34.0041 2.20277V12.6908C34.0041 13.2009 34.1037 13.6239 34.3027 13.9598C34.5142 14.2833 34.7817 14.4451 35.1052 14.4451H35.5718C35.7708 14.4451 35.9326 14.5197 36.057 14.669C36.1814 14.8059 36.2436 14.9863 36.2436 15.2102C36.2436 15.4466 36.1503 15.6394 35.9637 15.7887C35.7895 15.9256 35.5593 15.994 35.2732 15.994H35.1052ZM42.0626 16.0873C41.1171 16.0873 40.2711 15.8634 39.5246 15.4155C38.7781 14.9552 38.1872 14.3331 37.7517 13.5493C37.3163 12.7655 37.0985 11.8821 37.0985 10.8993C37.0985 9.90396 37.3225 9.01441 37.7704 8.2306C38.2307 7.4468 38.8528 6.83095 39.6366 6.38306C40.4204 5.92273 41.3037 5.69257 42.2866 5.69257C43.257 5.69257 44.1279 5.92273 44.8993 6.38306C45.6831 6.83095 46.2989 7.4468 46.7468 8.2306C47.2071 9.01441 47.4435 9.90396 47.456 10.8993L46.8215 11.2165C46.8215 12.1372 46.61 12.9645 46.1869 13.6986C45.7764 14.4326 45.2103 15.0174 44.4887 15.4528C43.7795 15.8758 42.9709 16.0873 42.0626 16.0873ZM42.2866 14.669C42.9833 14.669 43.5991 14.5073 44.1341 14.1838C44.6815 13.8479 45.1108 13.3938 45.4218 12.8215C45.7453 12.2492 45.907 11.6084 45.907 10.8993C45.907 10.1777 45.7453 9.53694 45.4218 8.97708C45.1108 8.40478 44.6815 7.95067 44.1341 7.61476C43.5991 7.27884 42.9833 7.11088 42.2866 7.11088C41.6023 7.11088 40.9802 7.27884 40.4204 7.61476C39.873 7.95067 39.4375 8.40478 39.114 8.97708C38.7906 9.53694 38.6288 10.1777 38.6288 10.8993C38.6288 11.6084 38.7906 12.2492 39.114 12.8215C39.4375 13.3938 39.873 13.8479 40.4204 14.1838C40.9802 14.5073 41.6023 14.669 42.2866 14.669ZM46.6535 15.994C46.4296 15.994 46.2367 15.9256 46.075 15.7887C45.9257 15.6394 45.851 15.4466 45.851 15.2102V12.131L46.2056 10.5074L47.456 10.8993V15.2102C47.456 15.4466 47.3813 15.6394 47.232 15.7887C47.0827 15.9256 46.8899 15.994 46.6535 15.994ZM55.4019 16.0873C54.4315 16.0873 53.5606 15.8634 52.7892 15.4155C52.0179 14.9552 51.402 14.3393 50.9417 13.5679C50.4938 12.7841 50.2636 11.907 50.2512 10.9366V2.22143C50.2512 1.97261 50.3196 1.77977 50.4565 1.64291C50.6058 1.49361 50.8048 1.41897 51.0537 1.41897C51.29 1.41897 51.4767 1.49361 51.6135 1.64291C51.7628 1.77977 51.8375 1.97261 51.8375 2.22143V7.55877C52.248 6.99891 52.783 6.55102 53.4424 6.21511C54.1018 5.86675 54.8358 5.69257 55.6445 5.69257C56.59 5.69257 57.4361 5.92273 58.1825 6.38306C58.929 6.83095 59.5138 7.4468 59.9368 8.2306C60.3722 9.01441 60.5899 9.89774 60.5899 10.8806C60.5899 11.8759 60.3598 12.7655 59.8994 13.5493C59.4516 14.3331 58.8357 14.9552 58.0519 15.4155C57.2805 15.8634 56.3972 16.0873 55.4019 16.0873ZM55.4019 14.669C56.0986 14.669 56.7207 14.501 57.2681 14.1651C57.828 13.8292 58.2634 13.3813 58.5744 12.8215C58.8979 12.2492 59.0597 11.6022 59.0597 10.8806C59.0597 10.1715 58.8979 9.53072 58.5744 8.95842C58.2634 8.38612 57.828 7.93823 57.2681 7.61476C56.7207 7.27884 56.0986 7.11088 55.4019 7.11088C54.7301 7.11088 54.1142 7.27884 53.5544 7.61476C53.0069 7.93823 52.5777 8.38612 52.2667 8.95842C51.9556 9.53072 51.8001 10.1715 51.8001 10.8806C51.8001 11.6022 51.9556 12.2492 52.2667 12.8215C52.5777 13.3813 53.0069 13.8292 53.5544 14.1651C54.1142 14.501 54.7301 14.669 55.4019 14.669Z" fill="#9A54BC"/>
<path d="M5.09085 15.6021L5.05604 15.6807L5.05645 15.6809L5.09085 15.6021ZM2.77676 13.9972L2.71485 14.0568L2.71541 14.0574L2.77676 13.9972ZM1.22781 11.6271L1.1479 11.6588L1.14845 11.6602L1.22781 11.6271ZM1.22781 5.80454L1.14829 5.77186L1.14806 5.77242L1.22781 5.80454ZM2.77676 3.43446L2.83812 3.49469L2.83867 3.49412L2.77676 3.43446ZM5.07219 1.82953L5.107 1.90814L5.10752 1.90791L5.07219 1.82953ZM10.3722 1.62425L10.3429 1.7051L10.3442 1.70553L10.3722 1.62425ZM12.481 2.85594L12.4258 2.92193L12.4282 2.92381L12.481 2.85594ZM12.6863 3.15453L12.6015 3.17337L12.6058 3.18472L12.6863 3.15453ZM12.6863 3.45313L12.6053 3.42274L12.6029 3.43227L12.6863 3.45313ZM12.5557 3.71439L12.4896 3.65935L12.4751 3.67674L12.4711 3.69901L12.5557 3.71439ZM12.3317 4.05031L12.3794 4.12187L12.381 4.12075L12.3317 4.05031ZM11.4359 3.97566L11.3785 4.03991L11.3835 4.04381L11.4359 3.97566ZM9.90565 3.04256L9.87466 3.12278L9.87627 3.12336L9.90565 3.04256ZM5.7067 3.21052L5.74228 3.28879L5.7429 3.2885L5.7067 3.21052ZM3.89648 4.4982L3.83429 4.43883L3.89648 4.4982ZM2.66479 6.40173L2.58534 6.36885L2.58487 6.37003L2.66479 6.40173ZM2.66479 11.0299L2.58486 11.0616L2.58535 11.0628L2.66479 11.0299ZM3.89648 12.9334L3.95867 12.8741L3.89648 12.9334ZM5.7067 14.2211L5.67112 14.2994L5.67165 14.2996L5.7067 14.2211ZM9.81234 14.3517L9.84253 14.4322L9.81234 14.3517ZM11.5292 13.4L11.5808 13.4688L11.5824 13.4676L11.5292 13.4ZM12.0518 13.232L12.0396 13.3171L12.0404 13.3172L12.0518 13.232ZM12.5183 13.4746L12.4544 13.5327L12.4605 13.5382L12.5183 13.4746ZM12.6676 14.2958L12.7467 14.3296V14.3296L12.6676 14.2958ZM12.4997 14.5757L12.5559 14.6407L12.5629 14.6347L12.5685 14.6273L12.4997 14.5757ZM10.3535 15.8074L10.3799 15.8892L10.3807 15.8889L10.3535 15.8074ZM7.92748 16.0946C6.93102 16.0946 5.99725 15.904 5.12525 15.5233L5.05645 15.6809C5.95113 16.0715 6.90844 16.2666 7.92748 16.2666V16.0946ZM5.12567 15.5235C4.26477 15.1422 3.50239 14.6135 2.83811 13.9369L2.71541 14.0574C3.3948 14.7494 4.17515 15.2906 5.05604 15.6807L5.12567 15.5235ZM2.83867 13.9375C2.18686 13.2611 1.67639 12.4801 1.30718 11.594L1.14845 11.6602C1.52572 12.5656 2.04788 13.3647 2.71485 14.0568L2.83867 13.9375ZM1.30772 11.5953C0.951202 10.6979 0.772592 9.73212 0.772592 8.69715H0.600639C0.600639 9.75233 0.782827 10.7398 1.14791 11.6588L1.30772 11.5953ZM0.772592 8.69715C0.772592 7.67476 0.951156 6.72154 1.30756 5.83666L1.14806 5.77242C0.782873 6.6791 0.600639 7.65429 0.600639 8.69715H0.772592ZM1.30734 5.83722C1.67654 4.93882 2.18684 4.15826 2.83812 3.49469L2.7154 3.37424C2.0479 4.05434 1.52557 4.85383 1.14829 5.77186L1.30734 5.83722ZM2.83867 3.49412C3.49032 2.81788 4.24626 2.28933 5.107 1.90814L5.03738 1.75092C4.15633 2.14109 3.38198 2.6825 2.71485 3.37481L2.83867 3.49412ZM5.10752 1.90791C5.97916 1.51506 6.91881 1.31832 7.92748 1.31832V1.14637C6.89577 1.14637 5.93189 1.34776 5.03686 1.75115L5.10752 1.90791ZM7.92748 1.31832C8.8275 1.31832 9.63227 1.44778 10.3429 1.70509L10.4015 1.54341C9.66895 1.27818 8.84389 1.14637 7.92748 1.14637V1.31832ZM10.3442 1.70553C11.0544 1.95042 11.7483 2.3552 12.4259 2.92189L12.5362 2.78999C11.8452 2.21208 11.1332 1.79573 10.4002 1.54297L10.3442 1.70553ZM12.4282 2.92381C12.5283 3.00161 12.5828 3.08503 12.6024 3.17319L12.7702 3.13588C12.74 3.00009 12.6577 2.88445 12.5338 2.78808L12.4282 2.92381ZM12.6058 3.18472C12.6358 3.26479 12.6358 3.34287 12.6058 3.42294L12.7668 3.48331C12.8114 3.36432 12.8114 3.24334 12.7668 3.12435L12.6058 3.18472ZM12.6029 3.43227C12.581 3.51997 12.5431 3.5952 12.4896 3.65935L12.6217 3.76944C12.6927 3.68429 12.7419 3.58535 12.7697 3.47398L12.6029 3.43227ZM12.4711 3.69901C12.4506 3.81144 12.3901 3.90446 12.2824 3.97988L12.381 4.12075C12.5221 4.02198 12.6109 3.89106 12.6402 3.72977L12.4711 3.69901ZM12.284 3.97877C12.1888 4.04225 12.0694 4.07631 11.9212 4.07631V4.24826C12.0964 4.24826 12.2507 4.20767 12.3794 4.12185L12.284 3.97877ZM11.9212 4.07631C11.7829 4.07631 11.6391 4.02344 11.4884 3.90752L11.3835 4.04381C11.5563 4.17671 11.736 4.24826 11.9212 4.24826V4.07631ZM11.4933 3.91159C11.0131 3.48193 10.4936 3.16489 9.93503 2.96176L9.87627 3.12336C10.4125 3.31836 10.9133 3.62338 11.3786 4.03974L11.4933 3.91159ZM9.93664 2.96236C9.37677 2.74605 8.70629 2.63933 7.92748 2.63933V2.81129C8.6914 2.81129 9.3397 2.91607 9.87467 3.12276L9.93664 2.96236ZM7.92748 2.63933C7.13143 2.63933 6.37879 2.80369 5.67049 3.13254L5.7429 3.2885C6.42804 2.9704 7.15592 2.81129 7.92748 2.81129V2.63933ZM5.67112 3.13225C4.97678 3.44786 4.36436 3.88353 3.83429 4.43883L3.95867 4.55756C4.47368 4.01803 5.06807 3.59525 5.74228 3.28879L5.67112 3.13225ZM3.83429 4.43883C3.30418 4.99419 2.88787 5.63775 2.58535 6.36885L2.74423 6.4346C3.03889 5.7225 3.44371 5.09705 3.95867 4.55756L3.83429 4.43883ZM2.58487 6.37003C2.29455 7.10214 2.14959 7.87808 2.14959 8.69715H2.32154C2.32154 7.89886 2.46273 7.14451 2.74471 6.43342L2.58487 6.37003ZM2.14959 8.69715C2.14959 9.54077 2.29443 10.3292 2.58487 11.0616L2.74471 10.9982C2.46285 10.2874 2.32154 9.52068 2.32154 8.69715H2.14959ZM2.58535 11.0628C2.88787 11.7939 3.30418 12.4374 3.83429 12.9928L3.95867 12.8741C3.44371 12.3346 3.03889 11.7091 2.74423 10.997L2.58535 11.0628ZM3.83429 12.9928C4.36436 13.5481 4.97678 13.9838 5.67112 14.2994L5.74228 14.1428C5.06807 13.8364 4.47368 13.4136 3.95867 12.8741L3.83429 12.9928ZM5.67165 14.2996C6.3797 14.6157 7.13193 14.7736 7.92748 14.7736V14.6017C7.15541 14.6017 6.42713 14.4486 5.74175 14.1426L5.67165 14.2996ZM7.92748 14.7736C8.59682 14.7736 9.23537 14.6599 9.84253 14.4322L9.78215 14.2712C9.19495 14.4914 8.57691 14.6017 7.92748 14.6017V14.7736ZM9.84253 14.4322C10.4479 14.2052 11.0274 13.8839 11.5808 13.4688L11.4777 13.3312C10.9363 13.7372 10.3711 14.0504 9.78215 14.2712L9.84253 14.4322ZM11.5824 13.4676C11.7432 13.3412 11.8944 13.2964 12.0396 13.3171L12.0639 13.1469C11.8608 13.1179 11.6637 13.185 11.4761 13.3324L11.5824 13.4676ZM12.0404 13.3172C12.2073 13.3395 12.3442 13.4109 12.4547 13.5325L12.582 13.4168C12.4436 13.2646 12.2695 13.1743 12.0631 13.1468L12.0404 13.3172ZM12.4605 13.5382C12.5757 13.643 12.6376 13.7919 12.6376 13.9972H12.8096C12.8096 13.7545 12.7347 13.5551 12.5762 13.411L12.4605 13.5382ZM12.6376 13.9972C12.6376 14.0996 12.6206 14.1873 12.5886 14.2619L12.7467 14.3296C12.7893 14.2301 12.8096 14.1187 12.8096 13.9972H12.6376ZM12.5886 14.2619C12.5547 14.3411 12.5026 14.4285 12.4309 14.5241L12.5685 14.6273C12.646 14.5239 12.7059 14.4246 12.7467 14.3296L12.5886 14.2619ZM12.4434 14.5107C11.8047 15.0634 11.0991 15.4682 10.3264 15.7258L10.3807 15.8889C11.1756 15.624 11.9008 15.2077 12.5559 14.6407L12.4434 14.5107ZM10.3271 15.7256C9.56468 15.9715 8.76493 16.0946 7.92748 16.0946V16.2666C8.78206 16.2666 9.59968 16.1409 10.3799 15.8892L10.3271 15.7256ZM16.8002 15.4155L16.7571 15.4898L16.7576 15.4901L16.8002 15.4155ZM14.9714 13.5679L15.046 13.5253L14.9714 13.5679ZM14.9714 8.21194L14.8967 8.16928L14.9714 8.21194ZM16.8002 6.3644L16.7576 6.28975L16.7571 6.29005L16.8002 6.3644ZM23.9665 8.21194L24.0411 8.16928L23.9665 8.21194ZM24.657 10.8993H24.7429L24.7429 10.8982L24.657 10.8993ZM23.9851 13.5679L23.9105 13.5253L23.9851 13.5679ZM22.1376 15.4155L22.0949 15.3408L22.0944 15.3411L22.1376 15.4155ZM21.3538 14.1838L21.3975 14.2578L21.3987 14.2571L21.3538 14.1838ZM22.6415 12.8401L22.7166 12.8819L22.717 12.8812L22.6415 12.8401ZM22.6415 8.95842L22.5659 8.99948L22.6415 8.95842ZM21.3538 7.61476L21.3088 7.68805L21.31 7.68878L21.3538 7.61476ZM17.6027 7.61476L17.6465 7.68878L17.6469 7.68848L17.6027 7.61476ZM16.2964 8.95842L16.2215 8.91611L16.2208 8.91737L16.2964 8.95842ZM16.2964 12.8401L16.2208 12.8812L16.2219 12.8831L16.2964 12.8401ZM17.6027 14.1838L17.5577 14.2571L17.5597 14.2582L17.6027 14.1838ZM19.4876 16.0013C18.493 16.0013 17.6123 15.7805 16.8429 15.3408L16.7576 15.4901C17.5558 15.9463 18.4666 16.1733 19.4876 16.1733V16.0013ZM16.8434 15.3411C16.0853 14.9009 15.4865 14.2961 15.046 13.5253L14.8967 13.6106C15.352 14.4074 15.9724 15.0342 16.7571 15.4898L16.8434 15.3411ZM15.046 13.5253C14.6063 12.7558 14.3855 11.8812 14.3855 10.8993H14.2136C14.2136 11.908 14.4407 12.8125 14.8967 13.6106L15.046 13.5253ZM14.3855 10.8993C14.3855 9.90471 14.6064 9.02395 15.046 8.2546L14.8967 8.16928C14.4406 8.96754 14.2136 9.87834 14.2136 10.8993H14.3855ZM15.046 8.2546C15.4865 7.48378 16.0853 6.87894 16.8434 6.43875L16.7571 6.29005C15.9724 6.74564 15.352 7.37249 14.8967 8.16928L15.046 8.2546ZM16.8429 6.43905C17.6123 5.99942 18.493 5.77855 19.4876 5.77855V5.60659C18.4666 5.60659 17.5558 5.83361 16.7576 6.28975L16.8429 6.43905ZM19.4876 5.77855C20.4695 5.77855 21.3376 5.99933 22.0944 6.43875L22.1808 6.29005C21.3948 5.83369 20.4963 5.60659 19.4876 5.60659V5.77855ZM22.0944 6.43875C22.8525 6.87894 23.4513 7.48378 23.8918 8.2546L24.0411 8.16928C23.5858 7.37249 22.9654 6.74564 22.1808 6.29005L22.0944 6.43875ZM23.8918 8.2546C24.3316 9.0243 24.5587 9.90545 24.571 10.9003L24.7429 10.8982C24.7303 9.87759 24.4971 8.96719 24.0411 8.16928L23.8918 8.2546ZM24.571 10.8993C24.571 11.8812 24.3502 12.7558 23.9105 13.5253L24.0598 13.6106C24.5158 12.8125 24.7429 11.908 24.7429 10.8993H24.571ZM23.9105 13.5253C23.4702 14.2958 22.8654 14.9006 22.0949 15.3408L22.1802 15.4901C22.9774 15.0346 23.6043 14.4077 24.0598 13.6106L23.9105 13.5253ZM22.0944 15.3411C21.3376 15.7805 20.4695 16.0013 19.4876 16.0013V16.1733C20.4963 16.1733 21.3948 15.9462 22.1808 15.4898L22.0944 15.3411ZM19.4876 14.755C20.1982 14.755 20.8356 14.5898 21.3975 14.2578L21.31 14.1098C20.7771 14.4247 20.1704 14.583 19.4876 14.583V14.755ZM21.3987 14.2571C21.9587 13.9134 22.3984 13.4547 22.7166 12.8819L22.5663 12.7984C22.2625 13.3453 21.8437 13.7823 21.3088 14.1105L21.3987 14.2571ZM22.717 12.8812C23.0356 12.295 23.194 11.6336 23.194 10.8993H23.022C23.022 11.6081 22.8694 12.2407 22.5659 12.7991L22.717 12.8812ZM23.194 10.8993C23.194 10.1649 23.0356 9.50359 22.717 8.91737L22.5659 8.99948C22.8694 9.55786 23.022 10.1904 23.022 10.8993H23.194ZM22.717 8.91737C22.3987 8.33175 21.9587 7.87232 21.3975 7.54074L21.31 7.68878C21.8437 8.00414 22.2621 8.44049 22.5659 8.99948L22.717 8.91737ZM21.3987 7.54148C20.8367 7.19656 20.1988 7.02491 19.4876 7.02491V7.19686C20.1698 7.19686 20.7761 7.36112 21.3088 7.68804L21.3987 7.54148ZM19.4876 7.02491C18.7764 7.02491 18.1326 7.19656 17.5585 7.54103L17.6469 7.68848C18.1925 7.36112 18.8054 7.19686 19.4876 7.19686V7.02491ZM17.559 7.54074C16.9981 7.87214 16.5522 8.33117 16.2215 8.91612L16.3712 9.00073C16.6875 8.44108 17.1125 8.00432 17.6465 7.68878L17.559 7.54074ZM16.2208 8.91737C15.9022 9.50359 15.7438 10.1649 15.7438 10.8993H15.9158C15.9158 10.1904 16.0684 9.55786 16.3719 8.99948L16.2208 8.91737ZM15.7438 10.8993C15.7438 11.6336 15.9022 12.295 16.2208 12.8812L16.3719 12.7991C16.0684 12.2407 15.9158 11.6081 15.9158 10.8993H15.7438ZM16.2219 12.8831C16.5525 13.4553 16.9981 13.9136 17.5577 14.2571L17.6477 14.1105C17.1125 13.7821 16.6872 13.3447 16.3708 12.7971L16.2219 12.8831ZM17.5597 14.2582C18.1336 14.5898 18.777 14.755 19.4876 14.755V14.583C18.8048 14.583 18.1915 14.4247 17.6457 14.1093L17.5597 14.2582ZM28.348 15.5834L28.2978 15.6533L28.2992 15.6543L28.348 15.5834ZM27.4149 14.4077L27.4933 14.3724L27.4149 14.4077ZM27.2842 1.64291L27.2234 1.58212V1.58212L27.2842 1.64291ZM28.4039 1.64291L28.3403 1.70123L28.3458 1.70629L28.4039 1.64291ZM28.9265 13.9598L28.8524 14.0037L28.8545 14.0069L28.9265 13.9598ZM30.6807 14.669L30.6146 14.7241L30.6171 14.7268L30.6807 14.669ZM30.5874 15.7887L30.6405 15.8563L30.6411 15.8559L30.5874 15.7887ZM29.7289 15.908C29.2223 15.908 28.7793 15.7756 28.3967 15.5126L28.2992 15.6543C28.7129 15.9387 29.1905 16.08 29.7289 16.08V15.908ZM28.3981 15.5136C28.0136 15.2373 27.7117 14.8579 27.4933 14.3724L27.3365 14.443C27.5659 14.9529 27.886 15.3573 28.2978 15.6533L28.3981 15.5136ZM27.4933 14.3724C27.2751 13.8878 27.1649 13.3278 27.1649 12.6908H26.993C26.993 13.3477 27.1067 13.9324 27.3365 14.443L27.4933 14.3724ZM27.1649 12.6908V2.20277H26.993V12.6908H27.1649ZM27.1649 2.20277C27.1649 1.98382 27.2277 1.821 27.345 1.70371L27.2234 1.58212C27.067 1.73853 26.993 1.94896 26.993 2.20277H27.1649ZM27.345 1.70371C27.4762 1.57253 27.6462 1.50494 27.8627 1.50494V1.33299C27.6065 1.33299 27.3908 1.4147 27.2234 1.58212L27.345 1.70371ZM27.8627 1.50494C28.0654 1.50494 28.2218 1.57146 28.3406 1.70101L28.4673 1.58481C28.3124 1.41577 28.108 1.33299 27.8627 1.33299V1.50494ZM28.3458 1.70629C28.4744 1.8241 28.5419 1.98608 28.5419 2.20277H28.7139C28.7139 1.9467 28.6321 1.73543 28.462 1.57953L28.3458 1.70629ZM28.5419 2.20277V12.6908H28.7139V2.20277H28.5419ZM28.5419 12.6908C28.5419 13.2117 28.6435 13.651 28.8525 14.0037L29.0004 13.916C28.8113 13.5968 28.7139 13.1901 28.7139 12.6908H28.5419ZM28.8545 14.0069C29.0783 14.3492 29.3705 14.531 29.7289 14.531V14.3591C29.4405 14.3591 29.1976 14.2174 28.9984 13.9128L28.8545 14.0069ZM29.7289 14.531H30.1955V14.3591H29.7289V14.531ZM30.1955 14.531C30.3698 14.531 30.507 14.5949 30.6147 14.724L30.7468 14.614C30.6056 14.4445 30.4194 14.3591 30.1955 14.3591V14.531ZM30.6171 14.7268C30.7242 14.8447 30.7814 15.0029 30.7814 15.2102H30.9533C30.9533 14.9696 30.886 14.767 30.7443 14.6112L30.6171 14.7268ZM30.7814 15.2102C30.7814 15.4201 30.7002 15.5884 30.5337 15.7216L30.6411 15.8559C30.8479 15.6905 30.9533 15.473 30.9533 15.2102H30.7814ZM30.5343 15.7211C30.3792 15.843 30.1695 15.908 29.8969 15.908V16.08C30.1966 16.08 30.4473 16.0082 30.6405 15.8563L30.5343 15.7211ZM29.8969 15.908H29.7289V16.08H29.8969V15.908ZM33.7242 15.5834L33.674 15.6533L33.6755 15.6543L33.7242 15.5834ZM32.7911 14.4077L32.8695 14.3724L32.7911 14.4077ZM32.6605 1.64291L32.5997 1.58212V1.58212L32.6605 1.64291ZM33.7802 1.64291L33.7166 1.70123L33.7221 1.70629L33.7802 1.64291ZM34.3027 13.9598L34.2287 14.0037L34.2308 14.0069L34.3027 13.9598ZM36.057 14.669L35.9909 14.7241L35.9934 14.7268L36.057 14.669ZM35.9637 15.7887L36.0168 15.8563L36.0174 15.8559L35.9637 15.7887ZM35.1052 15.908C34.5986 15.908 34.1555 15.7756 33.7729 15.5126L33.6755 15.6543C34.0891 15.9387 34.5668 16.08 35.1052 16.08V15.908ZM33.7744 15.5136C33.3899 15.2373 33.088 14.8579 32.8695 14.3724L32.7127 14.443C32.9421 14.9529 33.2623 15.3573 33.674 15.6533L33.7744 15.5136ZM32.8695 14.3724C32.6514 13.8878 32.5412 13.3278 32.5412 12.6908H32.3692C32.3692 13.3477 32.4829 13.9324 32.7127 14.443L32.8695 14.3724ZM32.5412 12.6908V2.20277H32.3692V12.6908H32.5412ZM32.5412 2.20277C32.5412 1.98382 32.604 1.821 32.7213 1.70371L32.5997 1.58212C32.4433 1.73853 32.3692 1.94896 32.3692 2.20277H32.5412ZM32.7213 1.70371C32.8525 1.57253 33.0224 1.50494 33.239 1.50494V1.33299C32.9828 1.33299 32.7671 1.4147 32.5997 1.58212L32.7213 1.70371ZM33.239 1.50494C33.4417 1.50494 33.5981 1.57146 33.7168 1.70101L33.8436 1.58481C33.6886 1.41577 33.4842 1.33299 33.239 1.33299V1.50494ZM33.7221 1.70629C33.8506 1.8241 33.9182 1.98608 33.9182 2.20277H34.0901C34.0901 1.9467 34.0084 1.73543 33.8383 1.57953L33.7221 1.70629ZM33.9182 2.20277V12.6908H34.0901V2.20277H33.9182ZM33.9182 12.6908C33.9182 13.2117 34.0198 13.651 34.2288 14.0037L34.3767 13.916C34.1876 13.5968 34.0901 13.1901 34.0901 12.6908H33.9182ZM34.2308 14.0069C34.4546 14.3492 34.7467 14.531 35.1052 14.531V14.3591C34.8167 14.3591 34.5739 14.2174 34.3747 13.9128L34.2308 14.0069ZM35.1052 14.531H35.5718V14.3591H35.1052V14.531ZM35.5718 14.531C35.746 14.531 35.8833 14.5949 35.9909 14.724L36.123 14.614C35.9818 14.4445 35.7956 14.3591 35.5718 14.3591V14.531ZM35.9934 14.7268C36.1005 14.8447 36.1576 15.0029 36.1576 15.2102H36.3296C36.3296 14.9696 36.2623 14.767 36.1206 14.6112L35.9934 14.7268ZM36.1576 15.2102C36.1576 15.4201 36.0764 15.5884 35.91 15.7216L36.0174 15.8559C36.2241 15.6905 36.3296 15.473 36.3296 15.2102H36.1576ZM35.9105 15.7211C35.7554 15.843 35.5457 15.908 35.2732 15.908V16.08C35.5729 16.08 35.8235 16.0082 36.0168 15.8563L35.9105 15.7211ZM35.2732 15.908H35.1052V16.08H35.2732V15.908ZM39.5246 15.4155L39.4795 15.4887L39.4804 15.4892L39.5246 15.4155ZM37.7517 13.5493L37.6766 13.591L37.7517 13.5493ZM37.7704 8.2306L37.6962 8.18706L37.6957 8.18795L37.7704 8.2306ZM39.6366 6.38306L39.6792 6.45772L39.6801 6.4572L39.6366 6.38306ZM44.8993 6.38306L44.8552 6.45691L44.8566 6.45771L44.8993 6.38306ZM46.7468 8.2306L46.6722 8.27326L46.6727 8.27414L46.7468 8.2306ZM47.456 10.8993L47.4944 10.9762L47.5426 10.9521L47.5419 10.8982L47.456 10.8993ZM46.8215 11.2165L46.783 11.1396L46.7355 11.1634V11.2165H46.8215ZM46.1869 13.6986L46.1124 13.6556L46.1119 13.6566L46.1869 13.6986ZM44.4887 15.4528L44.5327 15.5266L44.5331 15.5264L44.4887 15.4528ZM44.1341 14.1838L44.1786 14.2574L44.1791 14.2571L44.1341 14.1838ZM45.4218 12.8215L45.3469 12.7791L45.3463 12.7804L45.4218 12.8215ZM45.4218 8.97708L45.3462 9.01815L45.3474 9.0201L45.4218 8.97708ZM44.1341 7.61476L44.0884 7.68757L44.0892 7.68804L44.1341 7.61476ZM40.4204 7.61476L40.3761 7.54103L40.3754 7.54148L40.4204 7.61476ZM39.114 8.97708L39.1885 9.0201L39.1889 9.01939L39.114 8.97708ZM39.114 12.8215L39.1889 12.7792L39.114 12.8215ZM40.4204 14.1838L40.3754 14.2571L40.3774 14.2582L40.4204 14.1838ZM46.075 15.7887L46.014 15.8497L46.0194 15.8544L46.075 15.7887ZM45.851 12.131L45.767 12.1126L45.7651 12.1217V12.131H45.851ZM46.2056 10.5074L46.2313 10.4253L46.1417 10.3972L46.1216 10.489L46.2056 10.5074ZM47.456 10.8993H47.5419V10.8361L47.4817 10.8172L47.456 10.8993ZM47.232 15.7887L47.2902 15.8522L47.2928 15.8495L47.232 15.7887ZM42.0626 16.0013C41.1313 16.0013 40.3008 15.7809 39.5688 15.3418L39.4804 15.4892C40.2414 15.9458 41.1029 16.1733 42.0626 16.1733V16.0013ZM39.5697 15.3423C38.8361 14.8899 38.2553 14.2788 37.8269 13.5075L37.6766 13.591C38.119 14.3874 38.7202 15.0204 39.4795 15.4887L39.5697 15.3423ZM37.8269 13.5075C37.3992 12.7377 37.1845 11.869 37.1845 10.8993H37.0126C37.0126 11.8953 37.2333 12.7933 37.6766 13.591L37.8269 13.5075ZM37.1845 10.8993C37.1845 9.91735 37.4053 9.04277 37.845 8.27326L37.6957 8.18795C37.2397 8.98604 37.0126 9.89058 37.0126 10.8993H37.1845ZM37.8445 8.27414C38.2973 7.50318 38.9086 6.8981 39.6792 6.45771L39.5939 6.30841C38.797 6.7638 38.1641 7.39041 37.6962 8.18706L37.8445 8.27414ZM39.6801 6.4572C40.4497 6.00525 41.3177 5.77855 42.2866 5.77855V5.60659C41.2897 5.60659 40.3911 5.84022 39.593 6.30893L39.6801 6.4572ZM42.2866 5.77855C43.2428 5.77855 44.0982 6.00515 44.8552 6.45689L44.9433 6.30923C44.1576 5.84032 43.2712 5.60659 42.2866 5.60659V5.77855ZM44.8566 6.45771C45.6271 6.89798 46.2319 7.50278 46.6722 8.27326L46.8215 8.18795C46.366 7.39081 45.7391 6.76392 44.9419 6.30841L44.8566 6.45771ZM46.6727 8.27414C47.1247 9.04386 47.3577 9.91852 47.37 10.9003L47.5419 10.8982C47.5293 9.88941 47.2895 8.98496 46.8209 8.18706L46.6727 8.27414ZM47.4175 10.8224L46.783 11.1396L46.8599 11.2934L47.4944 10.9762L47.4175 10.8224ZM46.7355 11.2165C46.7355 12.1235 46.5273 12.9358 46.1125 13.6556L46.2614 13.7415C46.6926 12.9933 46.9074 12.1509 46.9074 11.2165H46.7355ZM46.1119 13.6566C45.7086 14.3776 45.1531 14.9514 44.4443 15.3792L44.5331 15.5264C45.2675 15.0833 45.8441 14.4876 46.262 13.7405L46.1119 13.6566ZM44.4447 15.379C43.7501 15.7932 42.9569 16.0013 42.0626 16.0013V16.1733C42.9848 16.1733 43.809 15.9584 44.5327 15.5266L44.4447 15.379ZM42.2866 14.755C42.9971 14.755 43.6287 14.5899 44.1786 14.2574L44.0896 14.1102C43.5696 14.4247 42.9695 14.583 42.2866 14.583V14.755ZM44.1791 14.2571C44.7395 13.9132 45.1792 13.4479 45.4973 12.8625L45.3463 12.7804C45.0423 13.3397 44.6235 13.7826 44.0892 14.1105L44.1791 14.2571ZM45.4967 12.8638C45.828 12.2775 45.993 11.6221 45.993 10.8993H45.821C45.821 11.5948 45.6626 12.2208 45.347 12.7792L45.4967 12.8638ZM45.993 10.8993C45.993 10.1644 45.8281 9.50848 45.4962 8.93407L45.3474 9.0201C45.6624 9.56541 45.821 10.191 45.821 10.8993H45.993ZM45.4973 8.93603C45.1792 8.35069 44.7395 7.88539 44.1791 7.54148L44.0892 7.68804C44.6235 8.01596 45.0423 8.45887 45.3463 9.01814L45.4973 8.93603ZM44.1798 7.54194C43.6298 7.19655 42.9978 7.02491 42.2866 7.02491V7.19686C42.9688 7.19686 43.5685 7.36113 44.0884 7.68757L44.1798 7.54194ZM42.2866 7.02491C41.5875 7.02491 40.95 7.19671 40.3761 7.54103L40.4646 7.68848C41.0105 7.36098 41.6171 7.19686 42.2866 7.19686V7.02491ZM40.3754 7.54148C39.8153 7.8852 39.3697 8.3501 39.0392 8.93478L39.1889 9.01939C39.5054 8.45947 39.9307 8.01614 40.4653 7.68804L40.3754 7.54148ZM39.0396 8.93407C38.7077 9.50848 38.5429 10.1644 38.5429 10.8993H38.7148C38.7148 10.191 38.8734 9.56541 39.1885 9.0201L39.0396 8.93407ZM38.5429 10.8993C38.5429 11.6221 38.7079 12.2775 39.0392 12.8638L39.1889 12.7792C38.8733 12.2208 38.7148 11.5948 38.7148 10.8993H38.5429ZM39.0392 12.8638C39.3697 13.4484 39.8153 13.9133 40.3754 14.2571L40.4653 14.1105C39.9307 13.7824 39.5054 13.3391 39.1889 12.7792L39.0392 12.8638ZM40.3774 14.2582C40.9511 14.5897 41.5881 14.755 42.2866 14.755V14.583C41.6165 14.583 41.0094 14.4248 40.4634 14.1093L40.3774 14.2582ZM46.6535 15.908C46.4486 15.908 46.2758 15.846 46.1305 15.7231L46.0194 15.8544C46.1976 16.0051 46.4105 16.08 46.6535 16.08V15.908ZM46.1358 15.7279C46.0046 15.5967 45.937 15.4268 45.937 15.2102H45.7651C45.7651 15.4664 45.8468 15.6821 46.0142 15.8495L46.1358 15.7279ZM45.937 15.2102V12.131H45.7651V15.2102H45.937ZM45.935 12.1493L46.2896 10.5257L46.1216 10.489L45.767 12.1126L45.935 12.1493ZM46.1799 10.5894L47.4302 10.9813L47.4817 10.8172L46.2313 10.4253L46.1799 10.5894ZM47.37 10.8993V15.2102H47.5419V10.8993H47.37ZM47.37 15.2102C47.37 15.4268 47.3024 15.5967 47.1712 15.7279L47.2928 15.8495C47.4602 15.6821 47.5419 15.4664 47.5419 15.2102H47.37ZM47.1739 15.7253C47.0431 15.8453 46.8722 15.908 46.6535 15.908V16.08C46.9076 16.08 47.1223 16.0059 47.2901 15.8521L47.1739 15.7253ZM52.7892 15.4155L52.7452 15.4893L52.746 15.4898L52.7892 15.4155ZM50.9417 13.5679L50.867 13.6106L50.8678 13.612L50.9417 13.5679ZM50.2512 10.9366H50.1652L50.1652 10.9377L50.2512 10.9366ZM50.4565 1.64291L50.3957 1.58212V1.58212L50.4565 1.64291ZM51.6135 1.64291L51.5499 1.70123L51.5554 1.70629L51.6135 1.64291ZM51.8375 7.55877H51.7515V7.8214L51.9068 7.60961L51.8375 7.55877ZM53.4424 6.21511L53.4814 6.29172L53.4826 6.29113L53.4424 6.21511ZM58.1825 6.38306L58.1374 6.45625L58.1383 6.45679L58.1825 6.38306ZM59.9368 8.2306L59.8611 8.27144L59.8616 8.27236L59.9368 8.2306ZM59.8994 13.5493L59.8253 13.5057L59.8248 13.5066L59.8994 13.5493ZM58.0519 15.4155L58.0951 15.4898L58.0954 15.4896L58.0519 15.4155ZM57.2681 14.1651L57.2239 14.0914L57.2231 14.0918L57.2681 14.1651ZM58.5744 12.8215L58.4996 12.7792L58.4993 12.7797L58.5744 12.8215ZM58.5744 8.95842L58.4989 8.99948L58.4996 9.00073L58.5744 8.95842ZM57.2681 7.61476L57.2231 7.68806L57.2251 7.6892L57.2681 7.61476ZM53.5544 7.61476L53.5981 7.68878L53.5986 7.68848L53.5544 7.61476ZM52.2667 8.95842L52.3422 8.99948L52.2667 8.95842ZM52.2667 12.8215L52.1911 12.8625L52.1915 12.8632L52.2667 12.8215ZM53.5544 14.1651L53.5094 14.2384L53.5101 14.2388L53.5544 14.1651ZM55.4019 16.0013C54.4453 16.0013 53.5895 15.7807 52.8324 15.3411L52.746 15.4898C53.5317 15.946 54.4177 16.1733 55.4019 16.1733V16.0013ZM52.8333 15.3417C52.0742 14.8886 51.4685 14.283 51.0155 13.5239L50.8678 13.612C51.3355 14.3956 51.9616 15.0217 52.7452 15.4893L52.8333 15.3417ZM51.0163 13.5253C50.5762 12.7551 50.3494 11.8925 50.3372 10.9355L50.1652 10.9377C50.1778 11.9216 50.4114 12.8132 50.867 13.6106L51.0163 13.5253ZM50.3372 10.9366V2.22143H50.1652V10.9366H50.3372ZM50.3372 2.22143C50.3372 1.98859 50.4008 1.82018 50.5173 1.70371L50.3957 1.58212C50.2384 1.73935 50.1652 1.95662 50.1652 2.22143H50.3372ZM50.5173 1.70371C50.6476 1.57339 50.8232 1.50494 51.0536 1.50494V1.33299C50.7864 1.33299 50.5639 1.41384 50.3957 1.58212L50.5173 1.70371ZM51.0536 1.50494C51.2703 1.50494 51.4323 1.57249 51.5501 1.70101L51.6769 1.58481C51.521 1.41474 51.3097 1.33299 51.0536 1.33299V1.50494ZM51.5554 1.70629C51.683 1.82324 51.7515 1.99077 51.7515 2.22143H51.9234C51.9234 1.95444 51.8426 1.73629 51.6716 1.57953L51.5554 1.70629ZM51.7515 2.22143V7.55877H51.9234V2.22143H51.7515ZM51.9068 7.60961C52.3089 7.0613 52.8332 6.62194 53.4814 6.29171L53.4034 6.1385C52.7328 6.4801 52.1872 6.93652 51.7681 7.50793L51.9068 7.60961ZM53.4826 6.29113C54.1285 5.94985 54.8486 5.77855 55.6445 5.77855V5.60659C54.823 5.60659 54.075 5.78365 53.4022 6.13908L53.4826 6.29113ZM55.6445 5.77855C56.5754 5.77855 57.4056 6.00493 58.1374 6.45624L58.2277 6.30988C57.4666 5.84053 56.6047 5.60659 55.6445 5.60659V5.77855ZM58.1383 6.45679C58.8712 6.89654 59.4453 7.50089 59.8611 8.27144L60.0124 8.18977C59.5823 7.39271 58.9868 6.76536 58.2268 6.30934L58.1383 6.45679ZM59.8616 8.27236C60.2893 9.04219 60.504 9.91092 60.504 10.8806H60.6759C60.6759 9.88457 60.4551 8.98663 60.0119 8.18885L59.8616 8.27236ZM60.504 10.8806C60.504 11.8621 60.2772 12.7364 59.8253 13.5057L59.9736 13.5928C60.4424 12.7946 60.6759 11.8897 60.6759 10.8806H60.504ZM59.8248 13.5066C59.3844 14.2773 58.7793 14.8886 58.0084 15.3413L58.0954 15.4896C58.8921 15.0217 59.5187 14.3889 59.9741 13.5919L59.8248 13.5066ZM58.0087 15.3411C57.252 15.7805 56.3838 16.0013 55.4019 16.0013V16.1733C56.4106 16.1733 57.3091 15.9462 58.0951 15.4898L58.0087 15.3411ZM55.4019 14.755C56.1131 14.755 56.751 14.5833 57.3131 14.2384L57.2231 14.0918C56.6904 14.4188 56.0841 14.583 55.4019 14.583V14.755ZM57.3123 14.2388C57.8849 13.8953 58.3311 13.4365 58.6496 12.8632L58.4993 12.7797C58.1957 13.3261 57.7711 13.7631 57.2239 14.0914L57.3123 14.2388ZM58.6493 12.8638C58.9808 12.2773 59.1456 11.6155 59.1456 10.8806H58.9737C58.9737 11.5889 58.8151 12.221 58.4996 12.7792L58.6493 12.8638ZM59.1456 10.8806C59.1456 10.1578 58.9806 9.50233 58.6493 8.91612L58.4996 9.00073C58.8152 9.55911 58.9737 10.1851 58.9737 10.8806H59.1456ZM58.65 8.91737C58.3314 8.33126 57.8848 7.87177 57.3111 7.54031L57.2251 7.6892C57.7711 8.00469 58.1954 8.44098 58.4989 8.99948L58.65 8.91737ZM57.3131 7.54148C56.751 7.19656 56.1131 7.02491 55.4019 7.02491V7.19686C56.0841 7.19686 56.6904 7.36112 57.2231 7.68804L57.3131 7.54148ZM55.4019 7.02491C54.715 7.02491 54.0837 7.19686 53.5101 7.54103L53.5986 7.68848C54.1447 7.36082 54.7452 7.19686 55.4019 7.19686V7.02491ZM53.5106 7.54074C52.9495 7.87232 52.5094 8.33175 52.1911 8.91737L52.3422 8.99948C52.646 8.44049 53.0644 8.00414 53.5981 7.68878L53.5106 7.54074ZM52.1911 8.91737C51.8727 9.50337 51.7142 10.1584 51.7142 10.8806H51.8861C51.8861 10.1845 52.0386 9.55808 52.3422 8.99948L52.1911 8.91737ZM51.7142 10.8806C51.7142 11.615 51.8725 12.2763 52.1911 12.8625L52.3422 12.7804C52.0388 12.222 51.8861 11.5894 51.8861 10.8806H51.7142ZM52.1915 12.8632C52.5098 13.436 52.9494 13.8948 53.5094 14.2384L53.5993 14.0918C53.0645 13.7636 52.6457 13.3266 52.3418 12.7797L52.1915 12.8632ZM53.5101 14.2388C54.0837 14.583 54.715 14.755 55.4019 14.755V14.583C54.7452 14.583 54.1447 14.4191 53.5986 14.0914L53.5101 14.2388Z" fill="#9A54BC" mask="url(#path-1-outside-1_1_961)"/>
</g>
<defs>
<filter id="filter0_d_1_961" x="0.280033" y="0.978232" width="60.7165" height="15.7614" filterUnits="userSpaceOnUse" color-interpolation-filters="sRGB">
<feFlood flood-opacity="0" result="BackgroundImageFix"/>
<feColorMatrix in="SourceAlpha" type="matrix" values="0 0 0 0 0 0 0 0 0 0 0 0 0 0 0 0 0 0 127 0" result="hardAlpha"/>
<feOffset dy="0.152468"/>
<feGaussianBlur stdDeviation="0.203291"/>
<feComposite in2="hardAlpha" operator="out"/>
<feColorMatrix type="matrix" values="0 0 0 0 0.721569 0 0 0 0 0.847059 0 0 0 0 0.94902 0 0 0 0.25 0"/>
<feBlend mode="normal" in2="BackgroundImageFix" result="effect1_dropShadow_1_961"/>
<feBlend mode="normal" in="SourceGraphic" in2="effect1_dropShadow_1_961" result="shape"/>
</filter>
</defs>
</svg>
